<mxfile host="app.diagrams.net" modified="2021-06-27T20:57:03.786Z" agent="5.0 (Windows NT 10.0; Win64; x64) AppleWebKit/537.36 (KHTML, like Gecko) Chrome/91.0.4472.114 Safari/537.36" etag="ijNkURZO9vXwUALDLH3u" version="14.8.1" type="github">
  <diagram id="u7V_BDu1VtyKSAVuI7es" name="Page-1">
    <mxGraphModel dx="868" dy="450" grid="1" gridSize="10" guides="1" tooltips="1" connect="1" arrows="1" fold="1" page="1" pageScale="1" pageWidth="850" pageHeight="1100" math="0" shadow="0">
      <root>
        <mxCell id="0" />
        <mxCell id="1" parent="0" />
        <mxCell id="sTBiDpVoaxLkYzl0jwAo-2" value="Owner" style="shape=umlActor;verticalLabelPosition=bottom;verticalAlign=top;html=1;" parent="1" vertex="1">
          <mxGeometry x="50" y="170" width="30" height="60" as="geometry" />
        </mxCell>
        <mxCell id="sTBiDpVoaxLkYzl0jwAo-3" value="Office Manager" style="shape=umlActor;verticalLabelPosition=bottom;verticalAlign=top;html=1;" parent="1" vertex="1">
          <mxGeometry x="60" y="330" width="30" height="60" as="geometry" />
        </mxCell>
        <mxCell id="sTBiDpVoaxLkYzl0jwAo-5" value="Instructor | Guide&amp;nbsp;" style="shape=umlActor;verticalLabelPosition=bottom;verticalAlign=top;html=1;" parent="1" vertex="1">
          <mxGeometry x="760" y="80" width="30" height="60" as="geometry" />
        </mxCell>
        <mxCell id="sTBiDpVoaxLkYzl0jwAo-8" value="Customer&lt;br&gt;" style="shape=umlActor;verticalLabelPosition=bottom;verticalAlign=top;html=1;" parent="1" vertex="1">
          <mxGeometry x="760" y="430" width="30" height="60" as="geometry" />
        </mxCell>
        <mxCell id="sTBiDpVoaxLkYzl0jwAo-9" value="Manage Ski and Tour packages" style="ellipse;whiteSpace=wrap;html=1;" parent="1" vertex="1">
          <mxGeometry x="200" y="40" width="130" height="30" as="geometry" />
        </mxCell>
        <mxCell id="sTBiDpVoaxLkYzl0jwAo-10" value="Add employees" style="ellipse;whiteSpace=wrap;html=1;" parent="1" vertex="1">
          <mxGeometry x="195" y="80" width="140" height="20" as="geometry" />
        </mxCell>
        <mxCell id="sTBiDpVoaxLkYzl0jwAo-11" value="Search and view courses and tours" style="ellipse;whiteSpace=wrap;html=1;" parent="1" vertex="1">
          <mxGeometry x="570" y="440" width="140" height="40" as="geometry" />
        </mxCell>
        <mxCell id="sTBiDpVoaxLkYzl0jwAo-12" value="Manage Tours" style="ellipse;whiteSpace=wrap;html=1;" parent="1" vertex="1">
          <mxGeometry x="560" y="90" width="140" height="20" as="geometry" />
        </mxCell>
        <mxCell id="5Go4oTmBntV5mJJ0-Zch-1" value="Add customer" style="ellipse;whiteSpace=wrap;html=1;" vertex="1" parent="1">
          <mxGeometry x="195" y="400" width="140" height="20" as="geometry" />
        </mxCell>
        <mxCell id="5Go4oTmBntV5mJJ0-Zch-5" value="Register&amp;nbsp;" style="ellipse;whiteSpace=wrap;html=1;" vertex="1" parent="1">
          <mxGeometry x="390" y="230" width="140" height="20" as="geometry" />
        </mxCell>
        <mxCell id="5Go4oTmBntV5mJJ0-Zch-6" value="View Profile" style="ellipse;whiteSpace=wrap;html=1;" vertex="1" parent="1">
          <mxGeometry x="390" y="260" width="140" height="20" as="geometry" />
        </mxCell>
        <mxCell id="5Go4oTmBntV5mJJ0-Zch-7" value="Change Password" style="ellipse;whiteSpace=wrap;html=1;" vertex="1" parent="1">
          <mxGeometry x="390" y="290" width="140" height="20" as="geometry" />
        </mxCell>
        <mxCell id="5Go4oTmBntV5mJJ0-Zch-8" value="Remove employees" style="ellipse;whiteSpace=wrap;html=1;" vertex="1" parent="1">
          <mxGeometry x="200" y="110" width="140" height="25" as="geometry" />
        </mxCell>
        <mxCell id="5Go4oTmBntV5mJJ0-Zch-9" value="Update employees" style="ellipse;whiteSpace=wrap;html=1;" vertex="1" parent="1">
          <mxGeometry x="200" y="145" width="140" height="25" as="geometry" />
        </mxCell>
        <mxCell id="5Go4oTmBntV5mJJ0-Zch-10" value="Delete customer" style="ellipse;whiteSpace=wrap;html=1;" vertex="1" parent="1">
          <mxGeometry x="195" y="430" width="140" height="20" as="geometry" />
        </mxCell>
        <mxCell id="5Go4oTmBntV5mJJ0-Zch-11" value="Update customer" style="ellipse;whiteSpace=wrap;html=1;" vertex="1" parent="1">
          <mxGeometry x="195" y="460" width="140" height="20" as="geometry" />
        </mxCell>
        <mxCell id="5Go4oTmBntV5mJJ0-Zch-13" value="Add course" style="ellipse;whiteSpace=wrap;html=1;" vertex="1" parent="1">
          <mxGeometry x="570" y="500" width="140" height="30" as="geometry" />
        </mxCell>
        <mxCell id="5Go4oTmBntV5mJJ0-Zch-14" value="View courses" style="ellipse;whiteSpace=wrap;html=1;" vertex="1" parent="1">
          <mxGeometry x="570" y="570" width="140" height="30" as="geometry" />
        </mxCell>
        <mxCell id="5Go4oTmBntV5mJJ0-Zch-24" value="" style="endArrow=none;dashed=1;html=1;dashPattern=1 3;strokeWidth=2;exitX=0.5;exitY=0;exitDx=0;exitDy=0;" edge="1" parent="1" source="5Go4oTmBntV5mJJ0-Zch-14" target="5Go4oTmBntV5mJJ0-Zch-13">
          <mxGeometry width="50" height="50" relative="1" as="geometry">
            <mxPoint x="605" y="575" as="sourcePoint" />
            <mxPoint x="655" y="525" as="targetPoint" />
          </mxGeometry>
        </mxCell>
        <mxCell id="5Go4oTmBntV5mJJ0-Zch-26" value="&amp;lt;&amp;lt;include&amp;gt;&amp;gt;" style="text;html=1;strokeColor=none;fillColor=none;align=center;verticalAlign=middle;whiteSpace=wrap;rounded=0;" vertex="1" parent="1">
          <mxGeometry x="620" y="540" width="40" height="20" as="geometry" />
        </mxCell>
        <mxCell id="5Go4oTmBntV5mJJ0-Zch-28" value="Manage ski courses" style="ellipse;whiteSpace=wrap;html=1;" vertex="1" parent="1">
          <mxGeometry x="560" y="125" width="140" height="20" as="geometry" />
        </mxCell>
        <mxCell id="5Go4oTmBntV5mJJ0-Zch-29" value="Rent items from ski store" style="ellipse;whiteSpace=wrap;html=1;" vertex="1" parent="1">
          <mxGeometry x="570" y="610" width="140" height="30" as="geometry" />
        </mxCell>
        <mxCell id="5Go4oTmBntV5mJJ0-Zch-31" value="Store keeper" style="shape=umlActor;verticalLabelPosition=bottom;verticalAlign=top;html=1;" vertex="1" parent="1">
          <mxGeometry x="70" y="560" width="30" height="60" as="geometry" />
        </mxCell>
        <mxCell id="5Go4oTmBntV5mJJ0-Zch-32" value="Assign job role" style="ellipse;whiteSpace=wrap;html=1;" vertex="1" parent="1">
          <mxGeometry x="200" y="180" width="140" height="20" as="geometry" />
        </mxCell>
        <mxCell id="5Go4oTmBntV5mJJ0-Zch-36" value="Login" style="ellipse;whiteSpace=wrap;html=1;" vertex="1" parent="1">
          <mxGeometry x="390" y="200" width="140" height="20" as="geometry" />
        </mxCell>
        <mxCell id="5Go4oTmBntV5mJJ0-Zch-38" value="View instructor / guide profile" style="ellipse;whiteSpace=wrap;html=1;" vertex="1" parent="1">
          <mxGeometry x="560" y="50" width="140" height="30" as="geometry" />
        </mxCell>
      </root>
    </mxGraphModel>
  </diagram>
</mxfile>
